<?xml version="1.0" standalone="no"?>
<!DOCTYPE svg PUBLIC "-//W3C//DTD SVG 20010904//EN"
 "http://www.w3.org/TR/2001/REC-SVG-20010904/DTD/svg10.dtd">
<svg version="1.0" xmlns="http://www.w3.org/2000/svg"
 width="225.000000pt" height="225.000000pt" viewBox="0 0 225.000000 225.000000"
 preserveAspectRatio="xMidYMid meet">
<metadata>
Created by potrace 1.11, written by Peter Selinger 2001-2013
</metadata>
<g transform="translate(0.000000,225.000000) scale(0.100000,-0.100000)"
fill="#000000" stroke="none">
<path d="M1037 1933 c-4 -3 -7 -24 -7 -45 0 -31 -3 -38 -20 -38 -17 0 -20 -7
-20 -44 0 -39 -3 -45 -22 -48 -15 -2 -24 -11 -26 -25 -2 -15 -10 -23 -23 -23
-17 0 -19 -8 -19 -70 0 -63 2 -70 20 -70 13 0 20 -7 20 -20 0 -17 7 -20 45
-20 41 0 45 -2 45 -25 0 -20 5 -25 25 -25 20 0 25 5 25 25 0 23 4 25 45 25 38
0 45 3 45 19 0 13 8 21 23 23 20 3 22 9 25 71 3 66 3 67 -23 67 -20 0 -25 5
-25 25 0 18 -5 25 -19 25 -16 0 -20 8 -23 43 -2 35 -7 43 -25 45 -20 3 -23 9
-23 48 0 36 -3 44 -18 44 -10 0 -22 -3 -25 -7z m43 -242 c0 -13 8 -21 23 -23
19 -3 22 -9 22 -48 l0 -45 -67 -1 -68 -1 0 49 c0 41 3 48 20 48 13 0 20 7 20
20 0 15 7 20 25 20 18 0 25 -5 25 -19z"/>
<path d="M810 225 l0 -45 -45 0 -45 0 0 -70 0 -70 338 2 337 3 3 68 3 67 -46
0 -45 0 0 45 0 45 -250 0 -250 0 0 -45z m450 -25 c0 -19 -7 -20 -200 -20 -193
0 -200 1 -200 20 0 19 7 20 200 20 193 0 200 -1 200 -20z m90 -90 c0 -20 -7
-20 -290 -20 -283 0 -290 0 -290 20 0 20 7 20 290 20 283 0 290 0 290 -20z"/>
</g>
</svg>
